<svg width="750" height="750" viewBox="0 0 750 750" fill="none" xmlns="http://www.w3.org/2000/svg">
<g clip-path="url(#clip0_106_2)">
<path d="M375 750C582.107 750 750 582.107 750 375C750 167.893 582.107 0 375 0C167.893 0 0 167.893 0 375C0 582.107 167.893 750 375 750Z" fill="white"/>
<path d="M351.49 610.669C269.236 609.196 198.412 597.908 198.412 586.273C198.412 583.912 199.964 582.345 204.652 579.972C220.574 571.915 271.038 564.556 319.649 563.202L336.817 562.724L338.62 565.597C339.935 567.692 340.15 568.558 339.413 568.798C338.857 568.98 331.621 569.284 323.333 569.475C305.29 569.892 301.283 570.84 296.229 575.887C293.218 578.894 291.199 582.944 292.209 583.952C292.426 584.17 324.592 584.568 363.688 584.836L434.771 585.325V582.82V580.315H459.323H483.875L482.694 576.972C480.785 571.567 477.329 568.667 470.066 566.374C467.049 565.421 467.01 565.369 469.273 565.318C473.086 565.234 496.027 568.263 508.533 570.502C542.848 576.647 556.743 583.541 547.993 590.082C543.894 593.146 541.03 594.353 531.833 596.889C505.333 604.196 464.736 608.736 410.976 610.404C387.686 611.126 379.118 611.164 351.49 610.669ZM87.1727 572.627C88.1542 572.439 89.7603 572.439 90.7418 572.627C91.7234 572.816 90.9203 572.971 88.9572 572.971C86.9942 572.971 86.1911 572.816 87.1727 572.627ZM100.706 571.853C101.278 571.624 101.962 571.653 102.226 571.916C102.489 572.179 102.021 572.367 101.185 572.332C100.261 572.294 100.073 572.106 100.706 571.853ZM358.973 565.046L356.991 562.055L381.326 562.12L405.662 562.186L407.129 564.049C407.937 565.073 408.597 566.271 408.597 566.711C408.597 567.15 408.953 567.629 409.387 567.774C409.822 567.919 399.103 568.038 385.567 568.038H360.955L358.973 565.046ZM462.382 564.724C462.954 564.496 463.639 564.524 463.902 564.787C464.166 565.05 463.697 565.238 462.862 565.203C461.937 565.165 461.75 564.977 462.382 564.724ZM429.218 563.606C429.218 562.991 432.732 562.903 441.314 563.306C447.967 563.618 453.559 564.008 453.74 564.173C453.922 564.339 448.479 564.473 441.645 564.473C433.168 564.473 429.218 564.198 429.218 563.606ZM71.5079 550.612C72.5325 549.523 73.5492 548.631 73.7673 548.631C73.9854 548.631 73.3256 549.523 72.3011 550.612C71.2765 551.701 70.2598 552.592 70.0417 552.592C69.8236 552.592 70.4834 551.701 71.5079 550.612ZM96.0956 529.323C96.0956 529.158 96.7202 528.534 97.4836 527.936C98.7415 526.951 98.7696 526.979 97.783 528.235C96.7469 529.555 96.0956 529.974 96.0956 529.323ZM350.102 512.399C353.483 512.25 359.015 512.25 362.396 512.399C365.777 512.547 363.01 512.669 356.249 512.669C349.487 512.669 346.721 512.547 350.102 512.399ZM331.874 511.646C332.646 511.446 333.717 511.459 334.254 511.676C334.791 511.893 334.159 512.057 332.851 512.041C331.542 512.025 331.103 511.847 331.874 511.646ZM252.198 495.812C252.77 495.583 253.454 495.612 253.717 495.875C253.982 496.138 253.513 496.326 252.677 496.291C251.753 496.253 251.565 496.065 252.198 495.812ZM496.636 458.115C496.636 457.995 499.403 455.233 502.783 451.976L508.93 446.055L503.001 452.194C497.495 457.896 496.636 458.694 496.636 458.115ZM164.901 455.432C165.447 455.212 166.339 455.212 166.884 455.432C167.43 455.652 166.983 455.831 165.893 455.831C164.802 455.831 164.356 455.652 164.901 455.432ZM145.271 448.529C145.271 448.364 145.895 447.74 146.659 447.143C147.917 446.158 147.945 446.185 146.959 447.442C145.922 448.761 145.271 449.181 145.271 448.529ZM156.771 436.946C157.561 436.075 158.386 435.362 158.604 435.362C158.822 435.362 158.355 436.075 157.565 436.946C156.775 437.818 155.951 438.53 155.732 438.53C155.514 438.53 155.982 437.818 156.771 436.946ZM165.496 429.025C166.286 428.154 167.11 427.441 167.328 427.441C167.546 427.441 167.079 428.154 166.289 429.025C165.5 429.897 164.675 430.61 164.457 430.61C164.239 430.61 164.707 429.897 165.496 429.025ZM172.238 423.182C172.238 423.017 172.863 422.393 173.626 421.796C174.884 420.811 174.912 420.838 173.926 422.095C172.889 423.414 172.238 423.834 172.238 423.182ZM180.963 415.261C180.963 415.096 181.588 414.472 182.351 413.875C183.608 412.89 183.637 412.917 182.65 414.174C181.614 415.493 180.963 415.913 180.963 415.261ZM191.67 405.263C192.46 404.391 193.284 403.678 193.502 403.678C193.72 403.678 193.253 404.391 192.463 405.263C191.674 406.134 190.849 406.847 190.631 406.847C190.413 406.847 190.881 406.134 191.67 405.263ZM200.395 397.342C201.185 396.47 202.009 395.757 202.227 395.757C202.445 395.757 201.978 396.47 201.188 397.342C200.399 398.213 199.574 398.926 199.356 398.926C199.138 398.926 199.606 398.213 200.395 397.342ZM209.119 389.421C209.909 388.549 210.733 387.837 210.952 387.837C211.17 387.837 210.702 388.549 209.913 389.421C209.123 390.292 208.298 391.005 208.08 391.005C207.862 391.005 208.33 390.292 209.119 389.421ZM216.654 382.785C216.654 382.621 217.279 381.996 218.042 381.399C219.3 380.414 219.329 380.442 218.342 381.698C217.305 383.017 216.654 383.437 216.654 382.785ZM223.793 376.449C223.793 376.284 224.418 375.66 225.181 375.062C226.439 374.077 226.467 374.105 225.48 375.361C224.444 376.681 223.793 377.1 223.793 376.449ZM230.931 370.112C230.931 369.947 231.556 369.323 232.319 368.726C233.577 367.74 233.605 367.768 232.619 369.024C231.582 370.344 230.931 370.764 230.931 370.112ZM238.069 363.775C238.069 363.61 238.694 362.986 239.457 362.389C240.715 361.404 240.744 361.431 239.757 362.688C238.721 364.007 238.069 364.427 238.069 363.775ZM253.139 350.309C253.139 350.145 253.764 349.521 254.527 348.923C255.785 347.938 255.814 347.966 254.827 349.222C253.79 350.542 253.139 350.961 253.139 350.309ZM260.278 343.973C260.278 343.808 260.903 343.184 261.666 342.587C262.923 341.601 262.952 341.629 261.965 342.885C260.929 344.205 260.278 344.625 260.278 343.973ZM558.627 338.727C558.627 337.638 558.807 337.192 559.027 337.737C559.247 338.282 559.247 339.173 559.027 339.717C558.807 340.262 558.627 339.816 558.627 338.727ZM266.623 338.428C266.623 338.263 267.248 337.639 268.011 337.042C269.269 336.057 269.297 336.084 268.311 337.341C267.274 338.66 266.623 339.08 266.623 338.428ZM272.968 332.883C272.968 332.719 273.593 332.095 274.356 331.497C275.614 330.512 275.642 330.54 274.656 331.796C273.619 333.116 272.968 333.535 272.968 332.883ZM559.541 325.657C559.546 323.043 559.693 322.07 559.87 323.493C560.046 324.917 560.043 327.055 559.862 328.246C559.681 329.436 559.536 328.271 559.541 325.657ZM286.451 321.002C286.451 320.837 287.076 320.213 287.84 319.616C289.097 318.631 289.126 318.658 288.139 319.914C287.103 321.234 286.451 321.654 286.451 321.002ZM559.45 316.944C559.466 315.637 559.644 315.198 559.845 315.969C560.046 316.74 560.033 317.809 559.815 318.345C559.598 318.882 559.434 318.251 559.45 316.944ZM558.627 305.459C558.627 304.37 558.807 303.925 559.027 304.469C559.247 305.014 559.247 305.905 559.027 306.449C558.807 306.994 558.627 306.548 558.627 305.459ZM324.523 287.734C324.523 287.569 325.148 286.945 325.911 286.348C327.169 285.363 327.197 285.39 326.211 286.647C325.174 287.966 324.523 288.386 324.523 287.734ZM337.213 276.645C337.213 276.48 337.838 275.856 338.601 275.259C339.859 274.273 339.888 274.301 338.901 275.557C337.864 276.877 337.213 277.297 337.213 276.645ZM368.939 248.922C368.939 248.757 369.564 248.133 370.327 247.535C371.585 246.55 371.614 246.578 370.627 247.834C369.59 249.154 368.939 249.573 368.939 248.922ZM412.959 172.387C413.749 171.516 414.573 170.803 414.791 170.803C415.009 170.803 414.542 171.516 413.752 172.387C412.963 173.258 412.138 173.971 411.92 173.971C411.702 173.971 412.17 173.258 412.959 172.387ZM550.937 169.021L547.001 164.862L551.165 168.793C555.034 172.445 555.693 173.179 555.101 173.179C554.976 173.179 553.102 171.308 550.937 169.021ZM418.114 167.239C419.139 166.149 420.156 165.258 420.374 165.258C420.592 165.258 419.932 166.149 418.908 167.239C417.883 168.328 416.866 169.219 416.648 169.219C416.43 169.219 417.09 168.328 418.114 167.239ZM482.558 140.136C483.758 139.955 485.721 139.955 486.92 140.136C488.12 140.318 487.138 140.466 484.739 140.466C482.34 140.466 481.359 140.318 482.558 140.136Z" fill="#73C2DE"/>
<path d="M90.0691 555.333C102.584 544.456 129.78 521.9 146.697 508.368C190.941 472.974 213.767 454.918 215.305 454.093C216.193 453.617 220.49 452.791 224.854 452.257C229.218 451.722 236.277 450.588 240.539 449.736C247.653 448.314 248.664 448.283 252.838 449.358C259.963 451.191 274.739 453.608 285.046 454.624C298.957 455.997 327.766 455.166 340.249 453.033C381.782 445.935 415.713 429.314 441.471 403.449C459.437 385.409 469.639 363.198 469.639 342.128C469.639 336.159 467.282 324.022 464.699 316.69C460.547 304.906 460.514 304.939 460.514 320.892C460.514 332.104 460.194 336.632 459.076 341.253C453.42 364.607 442.798 382.089 424.618 397.961C402.391 417.366 374.356 429.848 339.113 436.029C328.605 437.872 324.61 438.152 304.994 438.417C290.373 438.613 283.32 438.455 284.364 437.951C285.237 437.531 289.522 435.894 293.886 434.314C311.798 427.829 331.486 416.924 345.137 405.925C351.475 400.819 364.274 389.111 362.917 389.662C362.481 389.839 356.411 392.886 349.428 396.434C296.487 423.333 243.594 437.707 186.371 440.748C177.606 441.214 176.591 441.139 177.642 440.102C178.297 439.456 181.352 436.651 184.431 433.869C187.51 431.086 196.794 422.563 205.062 414.927C221.635 399.62 235.539 387.167 258.122 367.401C266.339 360.211 276.892 350.94 281.575 346.8C296.372 333.717 378.583 261.793 383.364 257.748C392.728 249.825 397.709 241.388 403.065 224.379C410.493 200.785 418.181 188.444 433.635 175.305C449.909 161.468 467.999 155.197 489.079 156.082C500.546 156.564 507.457 158.165 516.924 162.533C531.434 169.227 541.185 177.849 551.069 192.722L557.317 202.124L572.659 212.049L588 221.975L575.833 227.904C564.859 233.251 563.073 234.419 557.632 239.803C550.77 246.594 546.894 253.598 544.193 264.094C541.592 274.197 541.412 282.604 543.424 300.05C547.128 332.151 543.385 357.379 530.632 386.274C521.568 406.81 510.463 423.045 493.571 440.455C459.103 475.98 418.373 494.228 366.679 497.307C359.409 497.74 350.21 497.768 344.668 497.374C339.431 497.003 334.935 496.935 334.676 497.222C334.418 497.511 333.215 501.668 332.001 506.462C330.789 511.256 329.562 515.617 329.275 516.153C328.909 516.836 327.399 516.167 324.224 513.918C320.875 511.546 318.128 508.452 313.684 502.048C310.379 497.286 307.52 493.388 307.331 493.388C307.143 493.388 302.255 492.473 296.47 491.354C283.004 488.75 269.17 485.281 258.41 481.809L249.912 479.067L245.736 481.18C241.718 483.213 236.419 486.49 196.289 511.757C171.174 527.57 147.614 541.642 139.126 545.897C125.618 552.67 111.431 556.452 95.8216 557.441L87 558L90.0691 555.333ZM514.47 222.179C523.766 215.92 524.417 204.556 515.907 197.076C507.939 190.072 495.508 192.378 490.466 201.796C486.457 209.285 489.58 218.815 497.41 222.992C502.372 225.639 509.862 225.282 514.47 222.179Z" fill="#F6C919"/>
<path d="M314.009 585.406C295.547 585.211 292.764 585.022 292.764 583.965C292.764 581.878 294.948 578.406 297.875 575.84C302.573 571.72 307.164 570.775 324.532 570.354C333.049 570.147 340.265 569.746 340.566 569.462C341.094 568.965 337.317 563.23 311.433 525.234L299.526 507.755L291.497 506.398C282.027 504.797 267.409 501.189 259.075 498.395C253.615 496.565 252.892 496.493 250.023 497.504C248.308 498.108 238.372 503.938 227.941 510.46C190.725 533.73 153.644 556.001 143.556 561.143C135.561 565.218 125.542 568.564 113.976 571.022C107.324 572.436 102.972 572.787 91.4367 572.843C78.4839 572.905 76.8498 572.759 74.0373 571.286C68.2356 568.245 66.1832 560.382 69.795 555.032C73.5628 549.45 100.123 526.882 150.383 486.555L187.091 457.101L174.606 456.567C162.611 456.054 147.63 454.167 145.327 452.88C143.205 451.694 149.177 445.675 182.769 415.145C233.365 369.162 262.252 343.53 338.033 277.377C358.781 259.265 377.121 242.856 378.787 240.912C382.634 236.424 385.716 229.883 388.49 220.323C394.706 198.898 403.818 183.123 417.918 169.38C437.238 150.55 459.872 141 485.178 141C504.845 141 519.7 145.402 536.212 156.123C544.822 161.713 559.012 176.011 564.662 184.789C568.128 190.175 570.061 192.304 573.45 194.469C580.448 198.941 606.463 217.084 611.433 220.961C613.945 222.92 616 224.813 616 225.168C616 226.334 612.496 229.153 608.532 231.176C606.391 232.269 599.156 235.445 592.455 238.231C575.429 245.312 571.343 247.516 567.996 251.422C558.925 262.005 556.139 277.767 559.238 300.964C560.824 312.83 560.82 332.158 559.23 344.244C555.31 374.044 541.981 405.63 522.333 431.682C514.953 441.466 497.498 459.512 487.802 467.381C461.613 488.635 431.406 503.036 400.514 508.995C396.223 509.823 392.536 510.675 392.322 510.889C392.006 511.204 417.227 547.236 427.835 561.623L430.556 565.314L445.646 565.352C462.05 565.391 468.924 566.172 474.687 568.647C479.342 570.648 482.168 573.543 483.701 577.881L484.889 581.241H460.304H435.719V583.62V586L385.486 585.815C357.858 585.714 325.694 585.53 314.009 585.406ZM407.242 563.79C404.058 559.295 376.077 521.026 371.773 515.278L370.198 513.175L351.004 512.901C340.447 512.75 331.623 512.439 331.394 512.21C330.931 511.747 334.002 498.652 334.768 497.824C335.035 497.536 339.542 497.604 344.784 497.976C361.705 499.178 383.412 497.239 403.831 492.701C437.085 485.311 468.141 467.467 493.822 440.996C510.73 423.567 521.845 407.314 530.917 386.756C543.682 357.83 547.429 332.574 543.721 300.438C541.707 282.973 541.887 274.557 544.49 264.443C547.194 253.936 551.073 246.924 557.942 240.126C563.388 234.736 565.176 233.567 576.159 228.214L588.338 222.279L572.983 212.343L557.627 202.406L551.373 192.994C541.48 178.105 531.72 169.474 517.197 162.772C507.722 158.4 500.804 156.797 489.326 156.315C468.227 155.428 450.121 161.707 433.832 175.558C418.364 188.712 410.669 201.066 403.234 224.685C397.874 241.713 392.888 250.159 383.516 258.09C378.73 262.14 296.444 334.142 281.634 347.239C276.946 351.383 266.383 360.664 258.16 367.863C235.555 387.65 221.639 400.116 205.05 415.44C196.775 423.084 187.483 431.617 184.401 434.403C181.319 437.188 178.262 439.996 177.606 440.642C176.554 441.68 177.57 441.756 186.342 441.289C243.618 438.245 296.56 423.855 349.549 396.927C356.538 393.375 362.613 390.325 363.05 390.148C364.408 389.596 351.597 401.317 345.254 406.429C331.59 417.439 311.884 428.356 293.955 434.848C289.587 436.43 285.299 438.069 284.425 438.489C283.38 438.993 290.44 439.152 305.074 438.955C324.707 438.69 328.707 438.41 339.224 436.565C374.499 430.377 402.559 417.882 424.807 398.455C443.003 382.567 453.635 365.065 459.296 341.686C460.416 337.06 460.736 332.527 460.736 321.303C460.736 305.333 460.769 305.299 464.924 317.096C467.51 324.437 469.869 336.586 469.869 342.562C469.869 363.655 459.657 385.89 441.675 403.949C415.894 429.842 381.932 446.482 340.361 453.588C327.867 455.723 299.031 456.554 285.108 455.18C274.792 454.163 260.002 451.743 252.87 449.908C248.693 448.832 247.681 448.863 240.56 450.287C236.294 451.14 229.229 452.275 224.861 452.81C220.493 453.345 216.192 454.172 215.303 454.648C213.763 455.474 190.917 473.55 146.633 508.982C129.701 522.529 102.479 545.109 89.9533 555.998L86.8814 558.668L95.711 558.108C111.335 557.118 125.535 553.332 139.055 546.552C147.55 542.292 171.132 528.205 196.27 512.374C236.436 487.08 241.74 483.8 245.761 481.764L249.941 479.649L258.447 482.394C269.217 485.87 283.064 489.343 296.542 491.95C302.333 493.07 307.225 493.986 307.413 493.986C307.602 493.986 310.471 497.898 313.788 502.679C318.342 509.243 320.954 512.167 324.448 514.614C328.438 517.411 330.039 519.405 336.09 529.123C339.948 535.32 347.303 546.815 352.435 554.668L361.764 568.946H386.329H410.895L407.242 563.79ZM497.665 223.297C489.828 219.116 486.702 209.575 490.715 202.078C495.761 192.65 508.204 190.341 516.179 197.353C524.697 204.841 524.045 216.218 514.741 222.483C510.128 225.59 502.632 225.947 497.665 223.297Z" fill="#161812"/>
</g>
<defs>
<clipPath id="clip0_106_2">
<rect width="750" height="750" fill="white"/>
</clipPath>
</defs>
</svg>
